<?xml version="1.0" encoding="UTF-8"?>
<svg width="1920px" height="581px" viewBox="0 0 1920 581" version="1.1" xmlns="http://www.w3.org/2000/svg" xmlns:xlink="http://www.w3.org/1999/xlink">
    <!-- Generator: Sketch 63.1 (92452) - https://sketch.com -->
    <title>自定义预设</title>
    <desc>Created with Sketch.</desc>
    <g id="自定义预设" stroke="none" stroke-width="1" fill="none" fill-rule="evenodd">
        <rect fill="#000000" opacity="0" x="0" y="0" width="1920" height="581"></rect>
        <g id="椭圆3拷贝" transform="translate(735.000000, 66.000000)" fill="#000000" fill-rule="nonzero">
            <path d="M258.290891,447.550116 C259.585975,447.28048 261.02004,446.960353 262.608444,446.616541 C271.061625,444.786611 276.453817,443.730451 278.224407,439.589358 C279.377906,436.89118 278.308213,434.492047 277.703875,431.52111 C277.225246,429.168045 277.813447,422.538028 279.265471,416.165414 C280.372123,411.308068 287.279584,399.909717 285.251591,392.741469 C283.653817,387.094477 276.761972,383.662088 277.443609,378.687102 C277.885801,375.458502 280.921024,374.183459 284.275853,371.311423 C294.406969,362.637796 297.177241,347.941093 296.182765,344.59225 C296.133054,344.424378 295.849364,343.547542 296.182765,343.29092 C296.405292,343.119404 296.851648,343.264893 297.446096,343.625882 C298.089474,344.016541 308.049855,350.253817 310.749075,359.020879 C313.470156,367.859254 309.940949,372.540659 312.579526,381.810295 C313.869404,386.341527 316.022585,389.968334 317.524581,391.700405 C327.381637,403.067525 347.023655,401.167582 347.455176,398.987854 C347.662088,397.941845 342.363852,396.731868 338.345865,393.001735 C332.075275,387.180364 330.336698,379.726865 329.236553,374.26258 C326.101909,358.693204 325.659196,348.42753 318.825911,343.030654 C312.975911,338.410411 303.844216,337.627791 302.949682,337.565067 C302.210006,337.513274 301.606189,337.367264 300.867553,337.3048 C300.105234,337.240254 299.458733,337.207201 298.785425,336.784268 C297.306073,335.855119 297.037739,333.851591 296.963563,333.40081 C296.261365,329.132707 288.006507,312.123019 273.539618,301.648352 C266.3024,296.408155 257.950983,293.068161 258.183921,287.593985 C258.251851,285.998554 259.681492,284.199595 260.005784,283.429728 C262.201648,278.213476 262.454367,269.434702 262.469202,268.640891 C262.474928,268.338201 262.47727,267.219057 263.18129,266.74251 C263.828571,266.304482 264.725188,266.588172 265.080191,266.74251 C267.980856,268.005581 266.513736,274.645749 269.114575,278.369896 C272.452487,283.148901 278.962782,282.839184 288.101764,284.30214 C293.805495,285.215153 299.518074,286.685136 302.602747,288.012753 C309.989618,291.191903 313.142221,295.734066 319.904193,299.248438 C336.624205,307.938982 352.329699,301.527588 354.793117,300.200752 C355.644708,299.742163 356.437739,299.147976 356.835425,298.191498 C358.699971,293.706593 349.614083,286.014951 345.519838,282.521139 C338.023655,276.12354 329.641006,268.067004 325.214662,263.47487 C308.574291,246.211423 307.665442,227.971197 295.279641,209.894158 C290.677877,203.178253 280.738577,189.931752 276.946761,188.199161 C276.731521,188.100521 275.746935,187.67889 275.694101,187.009746 C275.626431,186.150868 277.125304,185.388028 277.658849,185.114228 C281.059746,183.368623 284.128543,181.469462 285.728138,179.893811 C286.128687,179.499508 287.415442,177.459543 289.050954,176.571776 C290.92487,175.554656 292.264199,176.05723 294.035049,174.910758 C296.073193,173.591469 297.650925,170.524494 297.120503,168.029323 C296.899537,166.990602 296.376403,166.329526 296.703297,165.529208 C297.123626,164.499855 298.51605,164.324436 299.566223,163.967611 C304.116455,162.421891 307.484818,155.577154 307.113939,150.433777 C307.008791,148.974205 306.06819,146.473829 306.333141,143.927126 C306.432302,142.97273 306.713129,142.204685 306.853673,141.324465 C307.436929,137.670069 306.475506,132.222961 302.949682,129.091961 C299.598757,126.116079 295.939156,127.464777 292.373771,123.893146 C291.210642,122.727935 290.930596,121.631695 289.923106,120.329584 C287.584095,117.307374 284.700607,115.047224 283.354772,114.401504 C281.547484,113.534037 278.99974,112.83236 275.522846,112.977588 C271.489763,113.14598 267.091527,114.621689 266.029381,116.299624 C265.960671,116.408155 265.746732,116.75561 265.3631,116.925304 C264.515674,117.300607 263.4845,116.610642 262.943927,116.299624 C260.411278,114.842394 256.488028,114.766397 254.019665,116.338924 C253.03664,116.965124 251.747542,118.200868 251.156738,119.982649 C250.658849,121.484124 250.848323,122.827097 249.890544,123.418421 C249.418942,123.709398 248.920532,123.663852 248.696703,123.654482 C246.448265,123.558965 241.980798,125.831087 239.965298,129.612493 C237.187478,134.8238 239.392973,142.352256 243.007548,144.537449 C243.49893,144.834413 244.403615,145.268016 244.797918,146.248178 C245.369722,147.669231 244.466599,149.253991 244.194361,149.757866 C242.103383,153.62594 239.016108,164.410064 241.78716,170.734529 C242.053933,171.343551 242.544795,172.319289 242.313158,172.493146 C241.921978,172.787247 239.534558,170.741296 238.505986,169.207548 C233.642915,161.956536 227.813216,150.74011 224.970069,141.452516 C224.934413,141.335917 224.832389,141.04598 224.654367,140.699826 C226.414286,139.048699 227.515732,136.70188 227.515732,134.096096 C227.515732,130.634558 225.574147,127.629005 222.722672,126.10749 C222.564951,125.951591 221.871862,125.473482 221.9869,125.062782 C222.108704,124.628398 223.039416,124.580769 223.020677,124.498265 C223.017553,124.484731 222.968103,124.455842 222.885338,124.417843 C223.107085,124.370474 223.326229,124.321544 223.548757,124.274176 C226.979063,123.499364 229.132504,120.085194 228.359254,116.648641 L228.053441,115.289792 C227.861105,114.436379 227.0155,113.900752 226.16391,114.093088 L222.199798,114.988664 C219.321515,100.137883 209.969636,51.9058994 209.691411,50.7175246 C208.875737,47.2369867 199.400752,40.7724986 196.614864,41.4275882 C193.829237,42.0826778 188.222585,52.130509 189.030191,55.5766917 C189.360208,56.9847311 202.279555,103.864633 206.334239,118.572788 L202.541122,119.429844 C201.689532,119.62218 201.154685,120.469867 201.347021,121.323019 L201.652574,122.681868 C202.039589,124.400145 203.084818,125.798814 204.462146,126.670966 C205.888924,127.574349 207.617611,127.872874 209.264054,127.501475 C209.749971,127.385136 210.235107,127.272701 210.719983,127.157924 C210.999769,127.165732 211.506507,127.166773 211.658502,127.443175 C211.89144,127.867409 211.093464,128.610729 211.152285,128.65107 C211.160873,128.656796 211.209283,128.646906 211.2845,128.624263 C210.128658,130.143956 209.439474,132.038172 209.439474,134.096096 C209.439474,137.855119 211.728253,141.077993 214.986264,142.445691 C214.990688,142.530538 214.996674,142.60081 215.00188,142.639069 C215.051591,143.008647 215.107287,143.508878 215.134355,143.622094 C215.632504,145.71151 219.982851,173.061307 223.308271,184.008097 C224.009688,186.316657 224.717091,189.470301 225.130133,190.775014 C226.939503,196.490977 228.173684,202.36258 229.814922,207.432042 C230.052285,208.164951 231.119115,211.934905 230.075188,215.500289 C229.57808,217.197484 228.853239,218.322094 227.99306,219.144014 C225.578311,221.451793 221.978051,221.612377 219.40428,220.70561 C216.022383,219.514112 213.161018,216.082244 213.418161,212.116831 C213.588375,209.49413 215.073193,207.194158 217.061885,205.870445 C218.759341,204.74063 221.10668,204.180278 224.349335,204.829381 C226.590226,205.27808 228.55133,206.665038 228.773858,206.390977 C229.155147,205.921718 225.517669,201.323858 219.664546,196.761134 C215.043262,193.158531 209.624523,189.974436 209.774436,186.090226 C209.79812,185.476518 209.986553,184.830278 210.294968,184.268363 C210.909977,183.147658 212.437739,181.941585 215.500289,181.405437 C218.283314,180.918219 221.394534,181.82941 221.746674,181.145171 C222.236235,180.193898 218.566484,177.004338 214.198959,174.378253 C210.652313,172.245894 207.233198,170.695749 204.308849,169.693464 C200.432186,168.364806 196.263245,167.382302 191.625043,166.763389 C190.158704,164.050376 187.135454,163.045228 184.546588,164.546964 L181.823684,166.125998 C177.819751,166.187681 174.391787,166.671255 172.296125,167.35107 C168.383025,168.620388 165.458936,170.360266 163.186813,172.296125 C161.306131,173.898583 159.865818,175.507808 158.804453,177.005119 C146.381955,178.590399 127.752892,180.833112 116.59919,182.186235 C116.176518,182.202371 115.765818,182.306998 115.393117,182.49439 C108.487739,184.388346 101.88583,193.697542 103.325361,203.007519 C103.747773,205.73797 105.56391,212.816165 111.507085,214.999277 C111.890977,215.179381 112.287363,215.347253 112.6952,215.500289 C117.642857,217.355986 133.961018,221.187102 141.064199,223.048005 C147.288462,224.678571 152.920879,227.255205 156.419896,232.417582 C156.442539,232.451157 156.463881,232.486813 156.486524,232.520648 C156.463621,232.573222 156.442799,232.625275 156.419896,232.677848 C156.477935,232.681232 156.536235,232.684615 156.594534,232.687999 C157.74465,234.450521 158.694361,236.549826 159.282822,238.663968 C159.852545,240.711481 160.109167,242.838115 160.063621,245.430885 C160.026403,247.552834 159.511336,249.956651 159.12354,251.954714 C157.834182,255.510468 155.794216,258.521747 154.077501,260.526316 C153.246992,261.496067 152.431839,262.29092 151.576345,262.978543 C149.235772,264.860006 146.858502,265.792019 145.228456,266.252169 C138.839965,268.055813 130.17727,270.350578 127.009832,270.936958 C117.814112,272.639358 110.425419,275.754222 108.791209,277.703875 C102.291324,285.457981 107.351938,298.524639 115.037594,321.688837 C119.443378,334.968392 121.774581,342.566599 126.4893,343.030654 C131.62487,343.53609 137.045431,334.040804 141.584731,321.428571 C142.550578,318.744448 143.157779,315.989271 141.844997,313.880856 C140.152227,311.162117 135.75321,310.964054 132.995951,308.935801 C131.133227,307.5655 128.315587,304.824899 128.311163,301.388086 C128.309341,299.992019 128.544361,298.401793 129.612493,297.484095 C130.847976,296.42247 132.59332,296.624176 133.256217,296.703297 C137.64092,297.226692 143.732967,297.857837 145.748988,298.264893 C148.858386,298.892655 154.215703,298.463216 159.022556,300.607287 C162.641296,302.221197 165.27753,304.365009 167.090804,306.853673 C167.753441,307.763042 168.420503,308.980567 168.6524,309.456333 C170.607779,313.468074 174.548467,319.602545 175.93985,321.688837 C179.018797,326.305437 186.498843,333.996559 195.720069,340.427993 C202.991382,345.499537 213.366628,351.817235 222.00694,357.345286 C223.877473,358.54199 227.836119,361.284153 230.335454,365.934066 C231.894708,368.834991 231.959514,371.073279 232.938115,374.26258 C234.337045,378.822961 236.321053,383.465327 237.622903,385.45402 C240.632099,390.051099 244.90801,393.373395 246.992481,394.823597 C255.160931,400.506507 261.594968,404.026345 262.86871,408.357432 C264.672354,414.493204 259.665616,420.911105 254.019665,432.041643 C249.811423,440.337883 248.198814,445.239994 250.115674,447.39734 C250.661712,448.011828 251.516946,448.2786 252.67461,448.310873 C243.605119,449.42325 234.370098,450 225,450 C100.735975,450 0,349.264025 0,225 C0,100.735975 100.735975,0 225,0 C349.264025,0 450,100.735975 450,225 C450,337.952342 366.767958,431.461249 258.290891,447.550116 L258.290891,447.550116 Z M189.669404,174.003991 C189.196761,174.21819 188.089329,171.894014 185.939532,171.079121 C183.68771,170.225448 181.217785,171.345113 180.99786,170.8631 C180.756073,170.333459 183.434471,168.881955 184.916165,168.197455 C185.706333,167.832302 186.66151,167.477559 187.51284,167.860931 C188.502111,168.306507 188.79491,169.502689 188.969289,170.215558 C189.540052,172.551186 189.992915,173.857201 189.669404,174.003991 Z M252.67461,448.310873 C254.553991,448.080278 256.426084,447.826778 258.290891,447.550116 C255.948496,448.037854 254.082649,448.350174 252.67461,448.310873 Z" id="形状"></path>
        </g>
    </g>
</svg>